<svg width="23" height="21" viewBox="0 0 23 21" fill="none" xmlns="http://www.w3.org/2000/svg">
<path d="M20.0636 2.26121C17.58 0.172927 13.7429 0.486599 11.3667 2.90574C8.99053 0.486599 5.15342 0.16863 2.66983 2.26121C-0.56142 4.98113 -0.0887642 9.4155 2.21436 11.7659L9.75107 19.4444C10.1808 19.8827 10.7565 20.1276 11.3667 20.1276C11.9811 20.1276 12.5526 19.887 12.9823 19.4487L20.519 11.7702C22.8179 9.4198 23.2991 4.98542 20.0636 2.26121ZM19.0495 10.3178L11.5128 17.9964C11.4097 18.0995 11.3237 18.0995 11.2206 17.9964L3.68389 10.3178C2.11553 8.7194 1.79756 5.69441 3.99756 3.84246C5.66904 2.43738 8.24717 2.64793 9.86279 4.29363L11.3667 5.82761L12.8706 4.29363C14.4948 2.63933 17.0729 2.43738 18.7358 3.83816C20.9315 5.69011 20.605 8.7323 19.0495 10.3178Z" fill="#F43735"/>
</svg>
